<svg xmlns="http://www.w3.org/2000/svg" id="Capa_2" data-name="Capa 2" viewBox="0 0 154.44 40.64"><defs><style>      .cls-1 {        fill: #18345d;      }    </style></defs><g id="Capa_1-2" data-name="Capa 1"><g><path class="cls-1" d="M9.58,14.49V.3h7.58c-.06.25-.12.49-.12.67s.06.43.12.67c-.67-.12-1.57-.24-2.73-.24-.31,0-.79.06-1.46.06h-1.4v5.06h3.09l2-.12c-.06.12-.12.3-.12.55s.06.48.12.73l-2.48-.19h-2.61v5.91c.36,0,.85.06,1.52.06s1.39-.06,2.18-.06c.85-.06,1.52-.12,2.07-.18-.12.24-.12.49-.12.73s0,.42.12.54h-7.77ZM26.81.36v2.37l-2.12,5.11h2.12v.98h-2.67l-2.12,5.66c-.12,0-.31-.06-.55-.06-.06,0-.18,0-.37.06h-.72L26.81.36ZM2.43.18c.24.06.54.12.91.12s.67-.06.91-.12v13.33c0,.67-.18,1.34-.54,1.89-.37.61-.85,1.04-1.45,1.4-.61.3-1.28.48-2.01.48h-.24v-.67c.73,0,1.21-.25,1.58-.61.36-.36.61-.85.73-1.39.06-.61.12-1.34.12-2.2V.18ZM62.79,7.48c0-.97.19-1.88.55-2.8.36-.91.85-1.64,1.52-2.31.67-.73,1.52-1.21,2.49-1.64.91-.37,2-.55,3.15-.55,2.25,0,3.88.31,4.92.91l-.49,1.64h-.12c-.49-.43-.91-.73-1.4-.98-.42-.31-.91-.48-1.39-.6-.49-.12-.97-.19-1.45-.19-1.04,0-1.95.24-2.79.73-.85.54-1.58,1.28-2.06,2.19-.55.97-.79,2.07-.79,3.35v.24c0,1.16.18,2.13.48,2.98.31.79.73,1.47,1.27,2.01.55.48,1.16.91,1.82,1.16.67.24,1.39.37,2.12.37.79,0,1.64-.19,2.43-.43.79-.3,1.45-.67,2.06-1.16l-.18,1.28c-.48.3-.97.55-1.52.73-.55.19-1.03.37-1.58.43-.55.12-1.09.19-1.58.19-.97,0-1.94-.19-2.85-.55-.91-.37-1.7-.85-2.43-1.52-.67-.67-1.21-1.46-1.63-2.37-.36-.91-.55-1.95-.55-3.11M38.09,14.49V.18h.97l10.07,10.9V.18c.12.06.36.12.6.12.31,0,.55-.06.67-.12v14.31h-.79l-10.25-11.26v11.26c-.12-.06-.36-.12-.54-.12-.24,0-.48.06-.73.12M26.81,8.83v-.98h2.13l-2.13-5.11V.36l.18-.36h.49l6.43,14.49h-.97c-.18-.06-.37-.06-.48-.06-.31,0-.61.06-.85.06l-2.31-5.66h-2.49ZM84.38.36v2.37l-2.19,5.11h2.19v.98h-2.67l-2.06,5.66c-.18,0-.36-.06-.54-.06-.12,0-.24,0-.37.06h-.73L84.38.36ZM84.38,8.83v-.98h2.12l-2.12-5.11V.36l.12-.36h.49l6.43,14.49h-.91c-.19-.06-.36-.06-.55-.06-.31,0-.55.06-.85.06l-2.31-5.66h-2.42ZM100.09.18v.86c-.25-.06-.55-.06-.85-.06h-1.76v5.85c.12.06.43.06.73.06.73,0,1.33-.06,1.88-.19v3.47l-2-2.49h-.61v6.82c-.36-.06-.67-.12-1.03-.12-.3,0-.67.06-.97.12V.18h4.61ZM131.45,14.49V.3h7.58c-.12.25-.12.49-.12.67s0,.43.12.67c-.73-.12-1.64-.24-2.73-.24-.37,0-.85.06-1.45.06h-1.4v5.06h3.09l1.95-.12c-.06.12-.12.3-.12.55s.06.48.12.73l-2.43-.19h-2.61v5.91c.31,0,.85.06,1.52.06.61,0,1.4-.06,2.18-.06.85-.06,1.52-.12,2-.18-.06.24-.12.49-.12.73s.06.42.12.54h-7.7ZM123.93.18c.24.06.55.12.91.12s.66-.06.9-.12v14.31c-.24-.06-.55-.12-.9-.12s-.67.06-.91.12V.18ZM113.31,14.49V1.09c-.24,0-.72.06-1.33.12-.6.06-1.21.12-1.76.18-.61.06-1.1.12-1.52.18.06-.18.12-.42.12-.67s-.06-.48-.12-.73h11.04c-.12.25-.12.49-.12.73s0,.49.12.67c-.31,0-.85-.13-1.64-.18-.79-.12-1.39-.18-1.88-.24-.55,0-.91-.06-1.09-.06v13.39c-.24-.06-.55-.12-.85-.12-.37,0-.67.06-.98.12M100.09,10.16v-3.47c.42-.12.79-.24,1.09-.43.67-.43,1.09-.91,1.27-1.4.18-.48.24-.91.24-1.28,0-.3-.06-.66-.24-1.1-.18-.36-.55-.73-1.09-1.04-.31-.24-.79-.36-1.27-.42V.18h.48c.92,0,1.64.12,2.31.43.61.3,1.03.67,1.33,1.22.3.48.49,1.1.49,1.76,0,.86-.24,1.52-.73,2.13-.48.55-1.03.98-1.7,1.28-.61.24-1.27.42-1.87.48l5.64,7c-.43-.06-.85-.12-1.28-.12s-.79.06-1.21.12l-3.46-4.32ZM148.5.18v.86c-.24-.06-.55-.06-.85-.06h-1.82v5.85c.19.06.49.06.79.06.72,0,1.33-.06,1.88-.19v3.47l-2-2.49h-.67v6.82c-.3-.06-.6-.12-.97-.12-.3,0-.67.06-.97.12V.18h4.61ZM148.5,10.16v-3.47c.42-.12.79-.24,1.09-.43.66-.43,1.09-.91,1.28-1.4.18-.48.24-.91.24-1.28,0-.3-.06-.66-.24-1.1-.25-.36-.55-.73-1.09-1.04-.3-.24-.79-.36-1.27-.42V.18h.48c.91,0,1.64.12,2.31.43.61.3,1.04.67,1.34,1.22.3.48.48,1.1.48,1.76,0,.86-.24,1.52-.73,2.13-.48.55-1.03.98-1.7,1.28-.61.24-1.27.42-1.88.48l5.63,7c-.42-.06-.85-.12-1.27-.12s-.79.06-1.21.12l-3.46-4.32Z"></path><g><polygon class="cls-1" points="53.43 21.49 54.21 21.49 54.21 23.88 57.28 23.88 57.28 21.49 58.06 21.49 58.06 27.08 57.28 27.08 57.28 24.6 54.21 24.6 54.21 27.08 53.43 27.08 53.43 21.49"></polygon><path class="cls-1" d="M64.88,25.31c0,.77.73,1.17,1.64,1.17s1.62-.4,1.62-1.17v-2.05c0-.77-.72-1.17-1.62-1.17s-1.64.4-1.64,1.17v2.05ZM64.1,23.15c0-1.1,1.08-1.78,2.42-1.78s2.41.67,2.41,1.78v2.27c0,1.1-1.07,1.78-2.41,1.78s-2.42-.68-2.42-1.78v-2.27Z"></path><path class="cls-1" d="M79.55,25.42c0,1.1-.98,1.78-2.32,1.78s-2.31-.68-2.31-1.78v-2.27c0-1.09.96-1.77,2.33-1.77s2.3.63,2.3,1.54v.29h-.77v-.17c0-.59-.62-.94-1.54-.94s-1.55.41-1.55,1.17v2.05c0,.77.63,1.17,1.53,1.17s1.53-.4,1.53-1.17v-.52h-1.49v-.71h2.28v1.34Z"></path><path class="cls-1" d="M86.72,24.84h2.07l-1.04-2.42-1.04,2.42ZM85.76,27.08h-.86l2.46-5.6h.8l2.46,5.6h-.87l-.67-1.55h-2.66l-.66,1.55Z"></path><path class="cls-1" d="M96.91,27.08h-.78v-5.6h2.45c1.35,0,2.17.61,2.17,1.7v.31c0,.86-.56,1.38-1.57,1.57l1.83,2.02h-1.04l-1.81-2.01v-.59h.25c1,0,1.56-.29,1.56-1.09v-.11c0-.75-.49-1.08-1.39-1.08h-1.67v4.88Z"></path></g><g><path class="cls-1" d="M58.4,38.14c.9,0,1.4-.4,1.4-1.17v-.17c0-.76-.5-1.16-1.4-1.16h-1.67v2.49h1.67ZM55.95,34.93h2.45c1.34,0,2.18.68,2.18,1.77v.38c0,1.08-.84,1.77-2.18,1.77h-1.67v1.67h-.78v-5.6Z"></path><path class="cls-1" d="M66.94,38.28h2.07l-1.04-2.42-1.03,2.42ZM65.98,40.52h-.86l2.46-5.6h.8l2.45,5.6h-.86l-.67-1.55h-2.66l-.66,1.55Z"></path><path class="cls-1" d="M77.13,40.52h-.78v-5.6h2.45c1.35,0,2.18.61,2.18,1.7v.31c0,.86-.57,1.39-1.57,1.57l1.83,2.02h-1.04l-1.81-2v-.59h.25c.99,0,1.56-.29,1.56-1.09v-.11c0-.75-.49-1.08-1.39-1.08h-1.67v4.88Z"></path><rect class="cls-1" x="86.99" y="34.93" width=".78" height="5.6"></rect><path class="cls-1" d="M93.72,38.7h.78v.09c0,.53.55,1.12,1.67,1.12,1.03,0,1.53-.38,1.53-.91v-.07c0-.56-.64-.77-1.57-.83-1.17-.08-2.27-.44-2.27-1.55v-.16c0-.9.68-1.57,2.21-1.57s2.27.83,2.27,1.73v.19h-.78v-.08c0-.54-.36-1.12-1.5-1.12-.99,0-1.42.39-1.42.86v.06c0,.68.7.82,1.61.89,1.07.09,2.24.42,2.24,1.49v.2c0,.96-.78,1.6-2.32,1.6s-2.46-.78-2.46-1.75v-.18Z"></path></g><rect class="cls-1" x=".01" y="30.7" width="154.42" height=".57"></rect></g></g></svg>